<svg width="507" height="182" viewBox="0 0 507 182" fill="none" xmlns="http://www.w3.org/2000/svg">
<path d="M374 41.716C374 35.3799 375.246 29.7445 377.739 24.8097C380.232 19.8139 383.694 15.9453 388.125 13.2037C392.612 10.4012 397.681 9 403.331 9C410.255 9 416.182 11.0105 421.112 15.0314C426.042 19.0524 429.338 24.5355 431 31.4808L420.312 26.0551C419.149 23.3745 417.487 21.3335 415.327 19.9323C413.222 18.531 409.826 16.7453 407.111 16.7453C402.735 16.7453 396.23 18.4207 393.516 21.7715C390.801 25.1223 388.125 27.4299 388.125 33.0348C388.125 38.6398 389.482 43.1177 392.197 46.4685C394.911 49.8193 398.456 51.4947 402.832 51.4947C405.547 51.4947 407.956 50.7941 410.061 49.3928C412.222 47.9916 415.202 39.4398 416.366 36.7592L431 51.9511C429.338 58.8964 426.042 64.3796 421.112 68.4005C413.466 70 413.215 70 406.291 70C400.641 70 395.572 68.6292 391.085 65.8877C386.654 63.0852 383.192 59.2165 380.699 54.2817C376.467 48.9254 375.039 45.1274 374 41.716Z" fill="#CC3363"/>
<path d="M355.676 50.6764L343.612 55.6764L330.075 70.1191L315 66.1191L336.391 7H353.065L369.5 59.5L374.456 66.1191H359.213L355.676 50.6764ZM352.97 41.56L345.644 19.9167L338.401 41.56H352.97Z" fill="#9ED8DB"/>
<path d="M275.136 11.4183L285.136 31.3769H304.422V47.4933H294.779H285.136V55.4624H306.948V66.9999L277.136 64.9999L268.736 64.9999L272.5 36.9999L270.736 7.88086H306.948V19.4183L275.136 11.4183Z" fill="#697A21"/>
<path d="M247.014 34.6826C250.439 35.4124 253.19 37.1248 255.267 39.8197C257.345 42.4584 258.383 45.4902 258.383 48.9149C258.383 53.8555 256.643 58.7856 253.162 61.705C249.737 64.5684 244.937 69 238.761 69L211.223 65L211.5 55.3783L207 18.5L211.223 5.88095L240.761 3.88095C246.768 3.88095 253.456 3.25647 256.825 6.00749C260.25 8.75852 257.036 16.4921 257.036 21.2081C257.036 24.689 256.109 27.5804 254.257 29.8823C252.46 32.1842 250.046 33.7843 247.014 34.6826ZM229.623 26.7981H239.056C241.414 26.7981 242.21 27.2928 243.445 26.2822C244.737 25.2155 246.382 22.6715 246.382 20.6504C246.382 18.6292 245.737 17.0853 244.445 16.0185C243.21 14.9518 241.414 14.4184 239.056 14.4184H229.623V26.7981ZM236.235 55.3783C239.5 56.5 240.501 55.845 241.793 54.7782C243.14 53.6554 245.814 50.0553 245.814 47.978C245.814 45.9007 243.112 43.2725 241.709 42.0935C240.361 40.9145 238.48 40.325 236.066 40.325H225.623V53.3783L236.235 55.3783Z" fill="#A491D3"/>
<path d="M507 9L494.5 54L487.802 57.5V53.7809L465.401 38.7809L460.5 59.5L446 70.5L451 33V4H465.401L472.284 24.1592L485.802 22.1592L487.802 4L507 9Z" fill="#9E2A2B"/>
<path d="M374.5 39.716V39.9393L374.565 40.1529C374.754 40.775 374.928 41.4837 375.119 42.2641C375.886 45.3985 376.936 49.69 380.443 54.1788C383.114 59.3593 387.773 62.3043 392.04 65.0012C392.121 65.0527 392.202 65.1041 392.284 65.1554L392.293 65.1616L392.303 65.1676C397.043 68.0638 402.386 69.5 408.291 69.5H408.377C411.759 69.5 413.626 69.5 415.589 69.2917C417.563 69.0822 419.618 68.6639 423.419 67.8687L423.575 67.8363L423.72 67.772C426.97 66.3323 429.238 63.6455 430.885 60.5412C432.53 57.4426 433.618 53.8125 434.459 50.3002L434.732 49.1599L433.691 48.6198L419.057 41.0238L417.63 40.2831L416.99 41.758C416.669 42.4959 416.264 43.6673 415.826 44.9469C415.778 45.0889 415.729 45.2329 415.679 45.3786C415.269 46.5771 414.82 47.8921 414.346 49.1749C413.813 50.6187 413.266 51.9778 412.732 53.0463C412.466 53.5807 412.217 54.0121 411.993 54.3331C411.882 54.4922 411.786 54.6105 411.707 54.6949C411.669 54.7363 411.637 54.766 411.614 54.7864C411.602 54.7965 411.593 54.8037 411.587 54.8085L411.58 54.8138C411.578 54.815 411.577 54.8155 411.577 54.8155L411.57 54.8204L411.562 54.8253C409.722 56.0505 407.606 56.6758 405.165 56.6758C401.233 56.6758 398.119 55.1987 395.695 52.2055C393.254 49.1929 391.958 45.0814 391.958 39.716C391.958 37.0872 392.513 33.6211 393.414 30.3858C394.326 27.1075 395.525 24.313 396.681 22.8859C397.88 21.4065 400.011 19.7209 402.413 18.4017C404.833 17.0718 407.291 16.2453 409.111 16.2453C410.175 16.2453 411.486 16.605 412.857 17.1922C414.206 17.7699 415.5 18.5185 416.496 19.1809L416.503 19.1859L416.511 19.1907C418.391 20.4104 419.874 22.2046 420.936 24.6522L421.151 25.148L421.633 25.3926L432.321 30.8183L435.214 32.2868L434.459 29.1318C432.73 21.9079 429.276 16.1231 424.06 11.869C418.838 7.60993 412.568 5.5 405.331 5.5C399.421 5.5 394.074 6.96937 389.333 9.92977C384.65 12.8278 381.006 16.9126 378.399 22.1366C375.786 27.3091 374.5 33.1808 374.5 39.716Z" stroke="black" stroke-width="3"/>
<path d="M332.075 69.6191H333.15L333.495 68.6003L336.763 58.9536L356.548 54.47L359.751 68.454L360.018 69.6191H361.213H376.456H378.693L377.844 67.5495L356.453 15.4305L356.218 14.8569L355.646 14.6169L338.971 7.61693L337.517 7.00636L336.98 8.48964L315.589 67.6087L314.862 69.6191H317H332.075ZM337.485 42.06L342.652 26.619L347.879 42.06H337.485Z" stroke="black" stroke-width="3"/>
<path d="M307.948 53.9624H287.636V43.495L295.779 40.1172L304.847 43.8788L306.922 44.7395V42.4933V31.3769V29.8769H305.422H287.087L280.717 16.372L307.7 20.8977L309.448 21.1909V19.4183V7.88086V6.38086H307.948H271.736H270.35L270.24 7.76163L266.005 60.8807L265.962 61.4217L266.275 61.865L270.51 67.865L271.14 68.7575L272.183 68.4317L278.316 66.5154L307.848 68.4966L309.448 68.6039V66.9999V55.4624V53.9624H307.948Z" stroke="black" stroke-width="3"/>
<path d="M256.451 41.898C254.99 40.0053 253.223 38.5489 251.165 37.5325C252.818 36.5719 254.245 35.3334 255.432 33.8141C257.531 31.2015 258.536 27.9634 258.536 24.2081C258.536 23.8854 258.537 23.5533 258.539 23.2137C258.548 21.1458 258.559 18.8026 258.235 16.6477C257.856 14.1343 256.984 11.5645 254.843 9.84182C252.772 8.15381 249.846 7.60673 246.955 7.41585C244.935 7.28248 242.715 7.31764 240.578 7.35149C239.64 7.36635 238.717 7.38095 237.835 7.38095H211.223H209.437L209.745 9.13999L211.478 19.0261L205.02 58.1339L204.942 58.608L205.153 59.0392L209.876 68.6609L210.288 69.5H211.223H238.761C244.626 69.5 247.877 66.6083 250.716 64.0831C251.194 63.6585 251.659 63.2442 252.124 62.8558L252.126 62.8543C252.689 62.3817 253.243 61.9494 253.808 61.5077C254.099 61.2806 254.393 61.051 254.693 60.8121C255.547 60.1323 256.411 59.4078 257.173 58.5925C258.745 56.9126 259.883 54.8439 259.883 51.9149C259.883 48.1634 258.737 44.8054 256.451 41.898ZM243.465 20.1538L243.477 20.1645L243.49 20.175C244.365 20.8976 244.882 21.9746 244.882 23.6504C244.882 24.2986 244.601 25.1781 244.09 26.0908C243.586 26.9891 242.964 27.7334 242.493 28.1235C242.297 28.2829 242.174 28.3399 242.093 28.3671C242.008 28.3956 241.89 28.4182 241.665 28.4191C241.447 28.42 241.206 28.4024 240.844 28.3761C240.789 28.372 240.731 28.3678 240.67 28.3634C240.232 28.332 239.699 28.2981 239.056 28.2981H231.123V18.9184H239.056C241.211 18.9184 242.601 19.408 243.465 20.1538ZM240.721 46.2224L240.732 46.2323L240.744 46.242C241.402 46.7945 242.348 47.6755 243.116 48.6357C243.943 49.6697 244.314 50.4924 244.314 50.978C244.314 51.467 243.946 52.2844 243.136 53.3011C242.383 54.245 241.46 55.1025 240.835 55.624C239.928 56.3717 238.509 56.8578 236.371 56.8777L227.123 55.1346V44.825H236.066C238.245 44.825 239.73 45.3551 240.721 46.2224Z" stroke="black" stroke-width="3"/>
<path d="M503.667 4.32458L504.072 2.5H502.203H487.802H486.302V4V25.2781L471.512 21.9008L466.854 3.62951L466.566 2.5H465.401H451H449.689L449.514 3.79885L445.514 33.3584L445.486 33.5595L445.514 33.7607L449.514 63.3202L449.689 64.6191H451H465.401H466.901V63.1191V40.2809H486.302V63.1191V64.6191H487.802H498.203H499.744L499.702 63.0781L498.707 26.7035L503.667 4.32458Z" stroke="black" stroke-width="3"/>
<path d="M110.419 7.88086L106.419 66.9999H96.0177V42.6617H73.6165L81.6165 66.9999H66.2157L63.2157 37.4404L59.2157 7.88086L78.6165 1.88086L80.5 28.04L94.0177 26.04L96.0177 7.88086H110.419Z" fill="#FDB52A"/>
<path d="M48.9884 7.88086V19.4183L34.3243 23.4183L45.3243 66.9999H18.9235V26.4183H3.25952V6.88086L48.9884 7.88086Z" fill="#E95B30"/>
<path d="M111.915 7.98212L112.023 6.38086H110.419H96.0177H94.5177V7.88086V29.54H77.8248L75.105 7.69553L74.9413 6.38086H73.6165H59.2157H57.499L57.7292 8.08201L61.702 37.4404L57.7292 66.7988L57.499 68.4999H59.2157H73.6165H75.1165V66.9999V44.1617H94.5177V66.9999V68.4999H96.0177H106.419H107.82L107.915 67.1012L111.915 7.98212Z" stroke="black" stroke-width="3"/>
<path d="M50.4884 7.88086V6.50634L49.1191 6.38657L3.39023 2.38657L1.75952 2.24392V3.88086V19.4183V20.9183H3.25952H17.4235V66.9999V68.4999H18.9235H35.3243H36.9502L36.8195 66.8793L32.966 19.1138L48.8196 20.9088L50.4884 21.0978V19.4183V7.88086Z" stroke="black" stroke-width="3"/>
<path d="M140.667 22.5833L143.518 30.9545L158.995 27.8333V40.0556H137.648V54.3148L154.129 56.3636L161.792 67H121.708L124.656 42.7727L119 11.2083L161.792 2L167.75 22.5833H140.667Z" fill="#DE7066"/>
<path d="M137.856 54.0464V43.8009H155.972H157.472V42.3009V31.0972V29.2654L155.676 29.6266L142.721 32.2329L138.494 20.5447H154.208H155.25L155.614 19.5685L159.947 7.94043L160.702 5.91663H158.542H121.708H120.096L120.212 7.52504L122.91 44.7547L120.22 66.8184L120.014 68.5H121.708H158.542H161.475L159.758 66.1217L152.716 56.3717L152.333 55.8418L151.685 55.7614L137.856 54.0464Z" stroke="black" stroke-width="3"/>
<path d="M328.434 178C323.107 178 318.333 177.166 314.113 175.497C309.893 173.828 306.503 171.357 303.943 168.086C301.453 164.815 300.138 160.876 300 156.27L321.021 158.868L321.689 162.278C323.28 163.613 325.355 164.281 327.915 164.281C330.544 164.281 330.336 163.865 331.859 162.73C333.381 161.528 334.576 160.343 334.576 158.274C334.576 156.538 333.519 154.652 332.274 153.517C331.097 152.382 330.233 151.279 328.434 150.545C326.704 149.81 325.874 148.993 322.623 148.058C317.918 146.656 314.079 145.255 311.104 143.853C308.129 142.451 305.569 140.381 303.425 137.644C301.28 134.907 300.208 131.335 300.208 126.929C300.208 120.387 302.664 115.28 307.575 111.608C312.487 107.869 318.887 106 326.774 106C334.799 106 341.267 107.869 346.179 111.608C351.091 115.28 354.031 128.91 354.377 135.519H342.962C342.962 135.519 340.275 133.712 337.786 132.046C336.879 131.439 329.897 128.317 328.835 128.061C326.45 127.486 323.828 126.929 322.623 126.929C320.478 126.929 317.102 126.983 315.787 128.118C314.473 129.186 314 127.238 314 129.307C314 131.577 320.409 131.44 322.623 132.708C324.836 133.977 328.639 135.401 333.343 136.87C338.048 138.406 341.198 138.545 344.104 139.947C347.079 141.349 349.638 143.385 351.783 146.056C353.928 148.726 355 152.164 355 156.37C355 160.376 353.928 164.014 351.783 167.285C349.708 170.556 346.664 173.16 342.651 175.096C338.638 177.032 333.899 178 328.434 178Z" fill="#697A21"/>
<path d="M270.571 109L263.381 139.99C262.04 145.771 260.151 152.405 263.729 157.139C263.918 157.388 264.118 157.627 264.329 157.856C266.306 159.998 264.173 159.5 268 159.5C271.827 159.5 266.705 159.998 268.746 157.856C269.697 156.859 270.426 155.663 270.934 154.27C272.228 150.719 271.533 146.812 270.986 143.073L266 109L287.102 109L294.158 144.458C294.718 147.272 294.987 151.341 294.892 154.209C294.65 161.505 294.058 169.244 287.593 172.635C287.435 172.718 287.272 172.8 287.102 172.882C282.828 174.961 278.044 176 272.749 176C267.454 176 262.702 174.992 258.492 172.976C254.345 170.897 251.06 167.81 248.636 163.715C246.212 159.557 245 154.517 245 148.595V109H270.571Z" fill="#CC3363"/>
<path d="M210.571 169C205.896 169 201.599 167.656 197.679 164.969C193.807 162.282 190.714 158.544 188.4 153.754C186.133 148.905 185 143.473 185 137.456C185 131.439 186.133 126.036 188.4 121.246C190.714 116.456 193.807 112.718 197.679 110.031C201.599 107.344 205.896 106 210.571 106C215.246 106 219.519 107.344 223.392 110.031C227.311 112.718 230.381 116.456 232.6 121.246C234.867 126.036 236 131.439 236 137.456C236 143.473 234.867 148.905 232.6 153.754C230.333 158.544 227.264 162.282 223.392 164.969C219.519 167.656 215.246 169 210.571 169ZM206.364 150.599C208.749 153.782 213.052 154.986 216.318 152.717C217.177 152.12 217.97 151.416 218.56 150.599C220.968 147.328 222.172 143.006 222.172 137.631C222.172 132.199 220.968 127.876 218.56 124.663C217.971 123.848 217.179 123.123 216.322 122.494C213.104 120.134 208.757 121.295 206.364 124.488C204.003 127.701 202.822 132.053 202.822 137.544C202.822 142.976 204.003 147.328 206.364 150.599Z" fill="#FDB52A"/>
<path d="M173 120L174.5 165L153.802 158.5V149.781H131.401L139.401 174.119L112 181.5L121 144.56L117 115H131.401L138.284 135.159L151.802 133.159L153.802 115L173 120Z" fill="#9E2A2B"/>
<path d="M304.432 166.14L304.438 166.148L304.444 166.156C306.695 169.138 309.671 171.374 313.325 172.872C316.958 174.361 321.03 175.09 325.516 175.09C330.134 175.09 334.219 174.242 337.724 172.489C341.195 170.754 343.889 168.387 345.738 165.371C347.632 162.374 348.575 159.037 348.575 155.399C348.575 151.613 347.64 148.374 345.65 145.806C343.779 143.391 341.527 141.528 338.897 140.243C337.551 139.571 336.173 139.215 334.763 138.877C334.594 138.837 334.423 138.796 334.25 138.755C332.965 138.45 331.594 138.125 329.981 137.579L329.971 137.576L329.962 137.573C326.147 136.339 323.204 135.183 321.566 134.21C321.004 133.877 320.149 133.516 319.318 133.173C319.165 133.11 319.01 133.046 318.854 132.981C318.11 132.676 317.337 132.357 316.598 132.021C315.694 131.609 314.936 131.211 314.424 130.84C314.207 130.683 314.077 130.561 314.006 130.48C314.048 129.876 314.31 128.873 314.739 127.821C314.963 127.271 315.211 126.763 315.451 126.356C315.709 125.92 315.895 125.707 315.966 125.647L315.983 125.633L316 125.618C316.048 125.575 316.198 125.475 316.528 125.37C316.845 125.269 317.244 125.189 317.709 125.13C318.642 125.013 319.678 125 320.547 125C320.819 125 321.337 125.063 322.073 125.2C322.78 125.331 323.601 125.513 324.435 125.713C324.435 125.713 324.435 125.713 324.436 125.714C324.441 125.715 324.479 125.726 324.561 125.754C324.645 125.783 324.754 125.822 324.887 125.874C325.154 125.976 325.491 126.115 325.882 126.28C326.661 126.611 327.62 127.039 328.578 127.48C329.537 127.921 330.487 128.372 331.247 128.748C331.628 128.937 331.955 129.103 332.209 129.239C332.337 129.307 332.44 129.364 332.52 129.41C332.56 129.433 332.591 129.451 332.614 129.466C332.638 129.481 332.648 129.487 332.647 129.487C333.552 130.115 334.439 130.732 335.1 131.192L335.896 131.746L336.118 131.9L336.176 131.941L336.191 131.951L336.195 131.954L336.196 131.955L336.196 131.955L336.196 131.955L337.053 130.724L336.196 131.955L336.582 132.224H337.053H346.317H347.895L347.815 130.648C347.515 124.707 345.207 119.958 340.84 116.573C336.523 113.17 330.919 111.539 324.168 111.539C317.523 111.539 311.978 113.174 307.665 116.573C303.279 119.973 301.109 124.725 301.109 130.64C301.109 134.578 302.036 137.927 304.024 140.555C305.895 143.031 308.152 144.93 310.794 146.22C313.302 147.445 316.497 148.65 320.357 149.842L320.364 149.845L320.372 149.847C322.022 150.338 322.683 150.707 323.417 151.116C323.83 151.346 324.265 151.589 324.912 151.873L324.922 151.877L324.931 151.881C325.828 152.261 326.286 152.736 326.998 153.474C327.171 153.653 327.358 153.848 327.571 154.061L327.586 154.076L327.602 154.091C328.391 154.836 329 156.05 329 157C329 158.012 328.527 158.618 327.36 159.574C327.069 159.801 326.839 160.003 326.672 160.15C326.642 160.177 326.613 160.202 326.587 160.224C326.4 160.388 326.346 160.423 326.313 160.441L326.312 160.442C326.286 160.457 326.116 160.552 325.095 160.552C323.527 160.552 322.331 160.188 321.412 159.538L320.974 157.222L320.772 156.151L319.691 156.012L302.632 153.827L300.891 153.604L300.942 155.358C301.061 159.494 302.207 163.111 304.432 166.14ZM313.952 130.41C313.952 130.41 313.953 130.411 313.954 130.413C313.953 130.411 313.952 130.41 313.952 130.41Z" stroke="black" stroke-width="3"/>
<path d="M268.462 114.216L268.883 112.381H267H244.494H242.994V113.881V149.167C242.994 154.646 244.102 159.409 246.394 163.39L246.394 163.39L246.399 163.398C248.673 167.288 251.775 170.245 255.689 172.232L255.702 172.238L255.714 172.244C259.649 174.152 264.06 175.089 268.917 175.089C273.779 175.089 278.219 174.122 282.208 172.158C282.352 172.088 282.493 172.016 282.631 171.944L281.933 170.616L282.631 171.944C285.972 170.188 287.739 167.305 288.688 164.122C289.622 160.99 289.798 157.45 289.904 154.211C289.991 151.564 289.749 147.829 289.231 145.194L283.021 113.592L282.783 112.381H281.549H274.5H272.768L273.015 114.095L277.325 143.916C277.364 144.183 277.403 144.447 277.441 144.71C277.961 148.25 278.423 151.392 277.26 154.155C276.894 155.025 276.414 155.766 275.825 156.392C274.387 157.92 272.249 158.783 269.169 158.783C266.087 158.783 263.99 157.919 262.614 156.409C261.033 154.675 260.561 152.391 260.716 149.658C260.849 147.305 261.428 144.833 262.011 142.35C262.114 141.91 262.217 141.47 262.318 141.03L268.462 114.216Z" stroke="black" stroke-width="3"/>
<path d="M190.441 171.024L190.448 171.028C195.34 173.739 200.701 175.09 206.502 175.09C212.303 175.09 217.639 173.739 222.479 171.024C227.318 168.309 231.159 164.525 233.987 159.694L233.991 159.687C236.828 154.782 238.235 149.298 238.235 143.272C238.235 137.249 236.829 131.792 233.991 126.94C231.216 122.102 227.37 118.316 222.475 115.602C217.636 112.889 212.302 111.539 206.502 111.539C200.701 111.539 195.34 112.889 190.448 115.601L190.448 115.601L190.441 115.605C185.605 118.317 181.738 122.098 178.855 126.923L178.855 126.923L178.848 126.934C176.007 131.787 174.6 137.246 174.6 143.272C174.6 149.298 176.008 154.782 178.844 159.687L178.85 159.696L178.855 159.706C181.738 164.53 185.605 168.311 190.441 171.024ZM214.891 154.894L214.886 154.9L214.881 154.905C214.243 155.62 213.291 156.28 212.173 156.863C209.025 158.503 205.159 157.636 202.609 154.895C200.109 152.088 198.789 148.294 198.789 143.356C198.789 138.353 200.113 134.567 202.605 131.823C205.167 129.064 209.057 128.221 212.154 129.941C213.275 130.563 214.235 131.252 214.881 131.976L214.89 131.986L214.9 131.997C217.448 134.744 218.795 138.502 218.795 143.44C218.795 148.316 217.451 152.083 214.891 154.894Z" stroke="black" stroke-width="3"/>
<path d="M169.699 115.101L169.808 113.5H168.203H153.802H152.302V115V136.659H135.609L132.889 114.815L132.726 113.5H131.401H117H115.283L115.514 115.201L119.486 144.56L115.514 173.918L115.283 175.619H117H131.401H132.901V174.119V151.281H152.302V174.119V175.619H153.802H164.203H165.605L165.699 174.22L169.699 115.101Z" stroke="black" stroke-width="3"/>
<path d="M376.667 129.583L379.518 137.955L394.995 134.833V147.056H373.648V161.315L390.129 163.364L397.792 174H357.708L360.656 149.773L355 118.208L397.792 109L403.75 129.583H376.667Z" fill="#A491D3"/>
<path d="M373.856 161.046V150.801H391.972H393.472V149.301V138.097V136.265L391.676 136.627L378.721 139.233L374.494 127.545H390.208H391.25L391.614 126.569L395.947 114.94L396.702 112.917H394.542H357.708H356.096L356.212 114.525L358.91 151.755L356.22 173.818L356.014 175.5H357.708H394.542H397.475L395.758 173.122L388.716 163.372L388.333 162.842L387.685 162.761L373.856 161.046Z" fill="#A491D3" stroke="black" stroke-width="3"/>
</svg>
