<svg width="158" height="51" viewBox="0 0 158 51" fill="none" xmlns="http://www.w3.org/2000/svg">
<path d="M147.53 8.5101L144.693 13.6958H135.408V41.5757H122.63L125.152 17.6425L117.587 20.1618V6.93555L147.53 8.5101Z" fill="#697A21"/>
<path d="M146.205 9.70989L147.348 7.61788L144.967 7.49258L117.079 6.02478L115.5 5.94168V7.52271V19.8523V21.9334L117.474 21.2753L122.31 19.6634L120.205 39.6573L120.031 41.3144H121.697H133.598H135.098V39.8144V15.3246H142.246H143.136L143.562 14.544L146.205 9.70989Z" stroke="black" stroke-width="3"/>
<path d="M103.357 43.6307L91.036 31.5947L86.6326 39.8144H79.2289L89.5277 23.3926L83.1099 11.339L94.5627 4V17.2746L98.9111 11.339H108.063L98.9111 27.7784L116.869 43.6307H103.357Z" fill="#FDB52A"/>
<path d="M99.4333 40.9429L99.8576 41.3144H100.422H113.934H117.398L115.027 38.788L100.649 23.4664L106.233 8.94175L106.877 7.26785L105.116 6.93026L100.521 6.04958L99.4768 5.84947L98.9421 6.76823L95.0554 13.4462L92.4812 4.18544L92.0921 2.7856L90.6805 3.12988L78.6446 6.06548L76.569 6.57171L77.75 8.35197L87.7428 23.4154L77.9581 39.0175L76.5176 41.3144H79.2289H86.6326H87.5307L87.9548 40.5228L91.4672 33.9663L99.4333 40.9429Z" stroke="black" stroke-width="3"/>
<path d="M62.7424 15.7425L64.2879 20.2793L72.6757 18.5877V25.2117H61.1067V32.9396L70.0383 34.05L74.1913 39.8144H52.4678L54.0651 26.6843L51 9.57769L74.1913 4.58716L77.4205 15.7425H62.7424Z" fill="#A491D3"/>
<path d="M61.9063 32.187V27.9285H71.0373H72.5373V26.4285V20.3566V18.5248L70.7415 18.886L64.3007 20.1818L62.5439 15.3246H70.0815H71.1233L71.4871 14.3484L73.8356 8.04651L74.5898 6.02271H72.43H52.4679H50.8553L50.9718 7.63112L52.4291 27.7415L50.9789 39.6328L50.7739 41.3144H52.4679H72.43H75.3637L73.646 38.9361L69.8297 33.652L69.447 33.1221L68.7983 33.0417L61.9063 32.187Z" stroke="black" stroke-width="3"/>
<path d="M39.5947 37.7595H35.871L22.7692 17.8417L26.3845 37.7595H12L14.9356 6.34851H21.3939L33.7235 22.4943L39.5947 7.52275L46.9337 6.34851L39.5947 37.7595Z" fill="#CC3363"/>
<path d="M41.356 41.3143H42.546L42.8167 40.1556L50.1557 8.7446L50.664 6.56921L48.4581 6.92216L41.1191 8.0964L40.2726 8.23184L39.9596 9.02993L35.0607 21.5222L24.3474 7.49295L23.8972 6.90332H23.1553H16.697H15.3306L15.2035 8.26374L12.2679 39.6747L12.1146 41.3143H13.7614H28.1458H29.9426L29.6217 39.5464L27.3203 26.867L36.3791 40.6386L36.8236 41.3143H37.6323H41.356Z" stroke="black" stroke-width="3"/>
<path d="M3.10984 49.2857L158 47L155.492 51H0L3.10984 49.2857Z" fill="black"/>
</svg>
